<?xml version="1.0" encoding="UTF-8"?><svg id="Layer_1" xmlns="http://www.w3.org/2000/svg" viewBox="0 0 1600 400"><path d="m174.75,293.18c-30.88,0-54.4-7.9-70.57-23.71-16.17-15.8-24.25-37.77-24.25-65.91s7.9-52.16,23.71-68.24c15.8-16.07,39.42-24.12,70.84-24.12,10.78,0,20.42.82,28.91,2.47,8.49,1.65,16.67,3.84,24.53,6.58v38.64c-15.9-6.58-32.61-9.87-50.15-9.87s-31.65,4.38-40.15,13.15c-8.49,8.77-12.74,22.57-12.74,41.38s4.48,31.06,13.43,39.46c8.95,8.41,22.29,12.61,40.01,12.61,8.59,0,17.08-.77,25.49-2.33,8.4-1.55,16.53-3.97,24.39-7.26v38.92c-7.67,2.56-15.8,4.57-24.39,6.03-8.59,1.46-18.27,2.19-29.05,2.19Z" style="fill:#1d2943;"/><path d="m377.19,178.93l-31.83,31.85c1,4.12,1.5,9.03,1.5,14.71,0,11.88-2.19,20.37-6.58,25.48-4.38,5.11-11.7,7.67-21.92,7.67-7.08,0-12.76-1.27-17.03-3.83l-28.43,28.42c11.4,6.64,26.56,9.95,45.46,9.95,25.22,0,43.76-5.8,55.63-17.41,11.88-11.6,17.81-28.36,17.81-50.28,0-19.6-4.87-35.13-14.61-46.55Zm-58.84-21.14c-24.85,0-43.25,5.85-55.21,17.54-11.98,11.7-17.96,28.41-17.96,50.15,0,19.69,4.8,35.21,14.36,46.56l32.05-32.04c-.98-4.09-1.47-8.93-1.47-14.52,0-11.88,2.19-20.37,6.58-25.48,4.38-5.11,11.6-7.68,21.64-7.68,7.15,0,12.87,1.26,17.17,3.76l28.31-28.3c-11.44-6.66-26.6-9.98-45.48-9.98Z" style="fill:#1d2943;"/><path d="m414.27,290.44v-129.9h41.11l1.37,11.24c5.3-3.65,11.96-6.89,20.01-9.73,8.04-2.83,16.62-4.25,25.76-4.25,16.81,0,29.05,4.02,36.72,12.06,7.67,8.04,11.51,20.46,11.51,37.27v83.31h-44.12v-79.75c0-7.31-1.55-12.51-4.66-15.62-3.11-3.1-8.68-4.66-16.72-4.66-4.75,0-9.59,1.1-14.53,3.29-4.93,2.19-9.04,4.93-12.33,8.22v88.52h-44.12Z" style="fill:#1d2943;"/><path d="m625.57,293.18c-10.41,0-20.28-.73-29.6-2.19s-16.72-3.29-22.2-5.48v-33.71c6.39,2.74,13.79,4.84,22.2,6.3,8.4,1.46,15.9,2.19,22.47,2.19,7.85,0,13.57-.36,17.13-1.1,3.56-.73,5.34-2.74,5.34-6.03,0-3.65-2.92-6.39-8.77-8.22-5.85-1.82-13.89-4.48-24.12-7.95-11.88-4.2-20.88-9.09-26.99-14.66-6.12-5.57-9.18-13.84-9.18-24.8,0-12.79,4.8-22.61,14.39-29.46,9.59-6.85,24.89-10.28,45.9-10.28,8.22,0,16.35.64,24.39,1.92,8.04,1.28,14.61,2.74,19.73,4.38v33.16c-5.12-2.37-10.96-4.11-17.54-5.21-6.58-1.1-12.52-1.64-17.81-1.64-6.76,0-12.47.41-17.13,1.23-4.66.82-6.99,2.79-6.99,5.89,0,3.47,2.56,5.89,7.67,7.26,5.11,1.37,12.51,3.61,22.2,6.71,10.23,3.11,18.18,6.44,23.84,10,5.66,3.56,9.68,7.81,12.06,12.74,2.37,4.93,3.56,11.15,3.56,18.64,0,12.98-5.12,22.93-15.35,29.87-10.23,6.95-25.31,10.42-45.22,10.42Z" style="fill:#1d2943;"/><path d="m773,293.18c-23.21,0-41.34-5.66-54.4-16.99-13.07-11.33-19.59-28.23-19.59-50.7s6.8-39.83,20.42-50.97c13.61-11.14,31.74-16.72,54.4-16.72,9.5,0,17.77.68,24.8,2.06,7.03,1.37,13.84,3.61,20.42,6.71v31.24c-10.23-4.93-22.2-7.4-35.9-7.4-12.79,0-22.52,2.56-29.19,7.67-6.67,5.12-10,14.25-10,27.41,0,12.24,3.11,21.15,9.32,26.72,6.21,5.57,16.07,8.36,29.6,8.36s25.49-2.74,36.45-8.22v32.61c-6.58,2.92-13.66,5.03-21.24,6.3-7.58,1.28-15.94,1.92-25.08,1.92Z" style="fill:#1d2943;"/><path d="m911.4,293.18c-22.66,0-40.83-5.62-54.54-16.85-13.7-11.24-20.55-28.18-20.55-50.84,0-20.64,5.66-37.09,16.99-49.33,11.33-12.24,28.32-18.36,50.97-18.36,20.64,0,36.63,5.3,47.96,15.9,11.33,10.6,16.99,24.85,16.99,42.75v23.29h-92.08c2.01,8.59,6.71,14.57,14.11,17.95,7.4,3.38,17.49,5.07,30.28,5.07,7.12,0,14.39-.64,21.79-1.92,7.4-1.28,13.57-2.92,18.5-4.93v28.78c-6.21,2.92-13.61,5.07-22.2,6.44-8.59,1.37-18,2.06-28.23,2.06Zm-34.26-78.93h53.71v-5.75c0-6.39-1.92-11.46-5.76-15.21-3.84-3.74-10.32-5.62-19.46-5.62-10.6,0-18,2.15-22.2,6.44-4.2,4.3-6.3,11.01-6.3,20.14Z" style="fill:#1d2943;"/><path d="m991.7,290.44v-129.9h41.11l1.37,11.24c5.3-3.65,11.96-6.89,20.01-9.73,8.04-2.83,16.62-4.25,25.76-4.25,16.81,0,29.05,4.02,36.72,12.06,7.67,8.04,11.51,20.46,11.51,37.27v83.31h-44.12v-79.75c0-7.31-1.55-12.51-4.66-15.62-3.11-3.1-8.68-4.66-16.72-4.66-4.75,0-9.59,1.1-14.53,3.29-4.93,2.19-9.04,4.93-12.33,8.22v88.52h-44.12Z" style="fill:#1d2943;"/><path d="m1208.2,293.18c-16.08,0-27.91-4.11-35.49-12.33-7.58-8.22-11.37-19.55-11.37-33.98v-52.89h-17.54v-33.44h17.54v-27.13l44.12-11.79v38.92h31.52l-1.92,33.44h-29.6v49.88c0,6.21,1.55,10.55,4.66,13.02,3.11,2.47,7.76,3.7,13.98,3.7,5.3,0,10.69-.91,16.17-2.74v29.87c-8.59,3.65-19.28,5.48-32.06,5.48Z" style="fill:#1d2943;"/><path d="m1251.77,290.44v-32.34h35.35v32.34h-35.35Z" style="fill:#1d2943;"/><path d="m1350.16,293.18c-8.22,0-15.85-1.46-22.88-4.38-7.04-2.92-12.65-7.44-16.85-13.57-4.2-6.12-6.3-13.75-6.3-22.88,0-13.34,4.52-23.8,13.57-31.38,9.04-7.58,22.61-11.37,40.7-11.37h36.18v-3.01c0-6.58-2.19-11.28-6.58-14.11-4.38-2.83-12.61-4.25-24.67-4.25-14.8,0-29.32,2.29-43.58,6.85v-28.5c6.39-2.56,14.2-4.66,23.43-6.3,9.22-1.64,18.95-2.47,29.19-2.47,20.1,0,35.85,4.11,47.28,12.33,11.42,8.22,17.13,21.29,17.13,39.19v81.12h-38.64l-2.19-10.96c-4.75,4.38-10.83,7.77-18.23,10.14-7.4,2.37-16.58,3.56-27.54,3.56Zm13.98-27.13c6.94,0,12.97-1.19,18.09-3.56,5.11-2.37,9.22-5.39,12.33-9.04v-18.36h-31.24c-12.98,0-19.46,5.21-19.46,15.62,0,4.75,1.64,8.5,4.93,11.24,3.29,2.74,8.4,4.11,15.35,4.11Z" style="fill:#1d2943;"/><path d="m1475.67,290.44v-97.29h-19.18l3.84-32.61h59.47v129.9h-44.12Zm-3.56-150.46v-33.16h47.96v33.16h-47.96Z" style="fill:#1d2943;"/><path d="m330.98,210.43c-2.54-2.97-6.78-4.45-12.72-4.45s-10.02,1.48-12.56,4.45c-2.55,2.97-3.82,7.9-3.82,14.79s1.27,11.83,3.82,14.79c2.54,2.97,6.73,4.46,12.56,4.46s10.18-1.48,12.72-4.46c2.55-2.96,3.82-7.89,3.82-14.79s-1.27-11.82-3.82-14.79Z" style="fill:#f0593c;"/></svg>